<?xml version="1.0" standalone="no"?>
<!DOCTYPE svg PUBLIC "-//W3C//DTD SVG 1.1//EN" "http://www.w3.org/Graphics/SVG/1.1/DTD/svg11.dtd">
<svg width="100%" height="100%" viewBox="0 0 1000 1000" version="1.1" xmlns="http://www.w3.org/2000/svg" xmlns:xlink="http://www.w3.org/1999/xlink" xml:space="preserve" style="fill-rule:evenodd;clip-rule:evenodd;stroke-linecap:round;stroke-linejoin:round;stroke-miterlimit:1.41421;">
    <g id="Shadows" transform="matrix(0.707107,0.707107,-0.707107,0.707107,507.545,-208.772)">
        <path d="M152.986,534.791L186.49,851.138L1000,851.138L1000,687.33L606.333,687.33L573.203,692.965L534.486,727.314L468.911,767.298L424.912,767.298L368.886,744.964L338.557,754.107L311.613,754.423L303.847,742.335L319.924,672.207L341.708,677.982L354.384,676.578L359.205,659.241L361.775,629.031L353.772,603.604L303.674,534.791L152.986,534.791Z" style="fill:rgb(128,128,128);"/>
        <path d="M444.337,767.138L1000,767.138L1042.18,687.33L589.484,687.33C589.484,687.33 570.633,689.249 543.495,718.98C538.2,724.78 509.248,744.553 500,750.682C470.721,770.085 444.337,767.138 444.337,767.138Z" style="fill:rgb(89,89,89);"/>
        <path d="M721.666,301.836L1206.89,301.836L1206.89,591.839L558.996,591.839C558.996,591.839 549.708,543.881 590.43,494.456C638.851,435.687 677.434,444.598 677.434,444.598C677.434,444.598 650.135,417.797 666.81,363.611C681.13,317.074 721.666,301.836 721.666,301.836Z" style="fill:rgb(89,89,89);"/>
        <path d="M772.043,163.898L807.06,481.758L1189.59,481.758L1189.59,163.898L772.043,163.898Z" style="fill:rgb(128,128,128);"/>
        <g transform="matrix(1,0,0,1,2.729,-1.13687e-13)">
            <rect x="558.084" y="199.065" width="238.078" height="36.345" style="fill:rgb(128,128,128);"/>
        </g>
        <path d="M427.296,393.317L441.075,425.371L464.964,425.371L484.006,412.875L500,391.184L513.794,370.395L535.223,351.382L558.084,337.908L444.337,337.908L434.778,351.382L429.4,366.964L427.296,393.317Z" style="fill:rgb(89,89,89);"/>
    </g>
    <g id="Brackets" transform="matrix(1,-3.88578e-16,3.88578e-16,1,-12.4324,-9.93988)">
        <g transform="matrix(1.4647,8.50043e-19,1.77052e-18,3.04353,-454.754,-469.686)">
            <path d="M344.613,330.067L344.613,306.442L481.16,248.786L481.16,273.957L372.879,318.395L481.16,363.254L481.16,388.426L344.613,330.067Z" style="fill:rgb(45,45,45);fill-rule:nonzero;"/>
        </g>
        <g transform="matrix(-1.4647,8.50043e-19,-1.77052e-18,3.04353,1454.75,-469.686)">
            <path d="M344.613,330.067L344.613,306.442L481.16,248.786L481.16,273.957L372.879,318.395L481.16,363.254L481.16,388.426L344.613,330.067Z" style="fill:rgb(45,45,45);fill-rule:nonzero;"/>
        </g>
    </g>
    <g id="Bat" transform="matrix(2.98282,0.532187,-0.532187,2.98282,181.677,58.7101)">
        <path d="M123.556,193.977C123.556,193.977 118.995,189.487 111.638,190.267C104.28,191.047 81.805,194.758 70.277,188.521C58.748,182.285 54.262,172.678 52.939,170.091C51.616,167.505 50.128,164.673 43.117,162.921C36.106,161.169 32.334,158.293 31.95,155.805C31.565,153.318 31.95,152.626 31.95,152.626C31.95,152.626 33.856,151.695 36.813,148.978C39.77,146.261 47.357,138.721 47.357,138.721C47.357,138.721 50.604,134.12 51.914,138.048C53.224,141.976 52.836,143.657 59.097,144.149C65.358,144.64 79.847,146.811 87.535,141.048C95.224,135.285 98.916,135.846 114.287,106.992C129.659,78.138 126.563,90.366 131.316,94.543C136.07,98.721 143.691,98.848 151.458,94.543C159.226,90.239 166.613,90.247 173.975,90.708C181.337,91.17 190.711,90.747 206.223,97.612C221.736,104.478 222.961,107.171 224.34,108.303C225.719,109.435 228.78,112.138 228.78,112.138C228.78,112.138 219.358,111.066 212.55,113.319C205.743,115.572 197.403,120.816 193.274,128.399C188.23,137.661 189.858,142.44 189.858,142.44C189.858,142.44 184.45,136.621 170.798,137.07C162.219,137.352 139.232,141.435 130,159.948" style="fill:none;stroke-width:3.14px;stroke:rgb(45,45,45);"/>
        <path d="M129.213,91.326C129.213,91.326 128.795,87.196 132.026,81.421C134.522,76.959 140.032,72.107 142.305,71.292C147.456,69.448 146.855,69.573 146.855,69.573C146.855,69.573 130.339,65.36 117.788,69.573C105.236,73.786 98.017,80.318 93.247,84.103C88.477,87.889 77.83,93.36 74.146,88.381C72.87,86.658 72.17,85.712 72.17,85.712C72.17,85.712 70.753,89.968 70.921,95.771C71.089,101.575 72.824,124.759 70.921,130C69.339,134.36 66.976,137.558 62.903,139.939" style="fill:none;stroke-width:3.14px;stroke:rgb(45,45,45);"/>
    </g>
</svg>
